<mxfile host="app.diagrams.net" modified="2022-09-09T08:11:50.201Z" agent="5.0 (Windows NT 10.0; Win64; x64) AppleWebKit/537.36 (KHTML, like Gecko) Chrome/105.0.0.0 Safari/537.36 Edg/105.0.1343.27" etag="TEOhheqn7i9R6plgzFoC" version="20.2.4" type="github">
  <diagram id="7ifJIqYh26QkqpNZ2W5G" name="Page-1">
    <mxGraphModel dx="1422" dy="794" grid="1" gridSize="10" guides="1" tooltips="1" connect="1" arrows="1" fold="1" page="1" pageScale="1" pageWidth="850" pageHeight="1100" math="0" shadow="0">
      <root>
        <mxCell id="0" />
        <mxCell id="1" parent="0" />
        <mxCell id="3XbdQUmmodfSfhwrSKd--1" value="Ceph01: mon, osd, mgr(stanby)" style="whiteSpace=wrap;html=1;aspect=fixed;shadow=0;strokeColor=#FF3333;strokeWidth=3;" vertex="1" parent="1">
          <mxGeometry x="120" y="240" width="160" height="160" as="geometry" />
        </mxCell>
        <mxCell id="3XbdQUmmodfSfhwrSKd--2" value="&lt;br&gt;&lt;span style=&quot;color: rgb(0, 0, 0); font-family: Helvetica; font-size: 12px; font-style: normal; font-variant-ligatures: normal; font-variant-caps: normal; font-weight: 400; letter-spacing: normal; orphans: 2; text-align: center; text-indent: 0px; text-transform: none; widows: 2; word-spacing: 0px; -webkit-text-stroke-width: 0px; background-color: rgb(248, 249, 250); text-decoration-thickness: initial; text-decoration-style: initial; text-decoration-color: initial; float: none; display: inline !important;&quot;&gt;Ceph02: admin, mon, mgr(active)&lt;/span&gt;&lt;br&gt;" style="whiteSpace=wrap;html=1;aspect=fixed;strokeColor=#FF3333;strokeWidth=3;" vertex="1" parent="1">
          <mxGeometry x="360" y="240" width="160" height="160" as="geometry" />
        </mxCell>
        <mxCell id="3XbdQUmmodfSfhwrSKd--3" value="Ceph03: mon, osd, mgr(stanby)" style="whiteSpace=wrap;html=1;aspect=fixed;strokeColor=#FF3333;strokeWidth=3;" vertex="1" parent="1">
          <mxGeometry x="600" y="240" width="160" height="160" as="geometry" />
        </mxCell>
        <mxCell id="3XbdQUmmodfSfhwrSKd--4" value="" style="endArrow=none;html=1;rounded=0;strokeWidth=5;" edge="1" parent="1">
          <mxGeometry width="50" height="50" relative="1" as="geometry">
            <mxPoint x="80" y="100" as="sourcePoint" />
            <mxPoint x="800" y="100" as="targetPoint" />
          </mxGeometry>
        </mxCell>
        <mxCell id="3XbdQUmmodfSfhwrSKd--6" value="" style="endArrow=none;html=1;rounded=0;strokeWidth=5;strokeColor=#007FFF;" edge="1" parent="1">
          <mxGeometry width="50" height="50" relative="1" as="geometry">
            <mxPoint x="80" y="180" as="sourcePoint" />
            <mxPoint x="800" y="180" as="targetPoint" />
          </mxGeometry>
        </mxCell>
        <mxCell id="3XbdQUmmodfSfhwrSKd--8" value="" style="endArrow=none;html=1;strokeColor=#007FFF;strokeWidth=3;exitX=0.25;exitY=0;exitDx=0;exitDy=0;rounded=0;" edge="1" parent="1" source="3XbdQUmmodfSfhwrSKd--1">
          <mxGeometry width="50" height="50" relative="1" as="geometry">
            <mxPoint x="400" y="430" as="sourcePoint" />
            <mxPoint x="160" y="180" as="targetPoint" />
            <Array as="points" />
          </mxGeometry>
        </mxCell>
        <mxCell id="3XbdQUmmodfSfhwrSKd--9" value="" style="endArrow=none;html=1;rounded=0;strokeColor=#007FFF;strokeWidth=3;exitX=0.25;exitY=0;exitDx=0;exitDy=0;" edge="1" parent="1" source="3XbdQUmmodfSfhwrSKd--2">
          <mxGeometry width="50" height="50" relative="1" as="geometry">
            <mxPoint x="130" y="250" as="sourcePoint" />
            <mxPoint x="400" y="180" as="targetPoint" />
            <Array as="points">
              <mxPoint x="400" y="210" />
            </Array>
          </mxGeometry>
        </mxCell>
        <mxCell id="3XbdQUmmodfSfhwrSKd--10" value="" style="endArrow=none;html=1;rounded=0;strokeColor=#007FFF;strokeWidth=3;exitX=0.25;exitY=0;exitDx=0;exitDy=0;" edge="1" parent="1" source="3XbdQUmmodfSfhwrSKd--3">
          <mxGeometry width="50" height="50" relative="1" as="geometry">
            <mxPoint x="140" y="260" as="sourcePoint" />
            <mxPoint x="640" y="180" as="targetPoint" />
            <Array as="points">
              <mxPoint x="640" y="210" />
            </Array>
          </mxGeometry>
        </mxCell>
        <mxCell id="3XbdQUmmodfSfhwrSKd--11" value="" style="endArrow=none;html=1;rounded=0;strokeColor=#000000;strokeWidth=3;exitX=0.75;exitY=0;exitDx=0;exitDy=0;fillColor=#000000;" edge="1" parent="1" source="3XbdQUmmodfSfhwrSKd--1">
          <mxGeometry width="50" height="50" relative="1" as="geometry">
            <mxPoint x="160" y="230" as="sourcePoint" />
            <mxPoint x="240" y="100" as="targetPoint" />
            <Array as="points" />
          </mxGeometry>
        </mxCell>
        <mxCell id="3XbdQUmmodfSfhwrSKd--12" value="" style="endArrow=none;html=1;rounded=0;strokeColor=#000000;strokeWidth=3;exitX=0.75;exitY=0;exitDx=0;exitDy=0;fillColor=#000000;" edge="1" parent="1">
          <mxGeometry width="50" height="50" relative="1" as="geometry">
            <mxPoint x="480" y="240" as="sourcePoint" />
            <mxPoint x="480" y="100" as="targetPoint" />
            <Array as="points" />
          </mxGeometry>
        </mxCell>
        <mxCell id="3XbdQUmmodfSfhwrSKd--13" value="" style="endArrow=none;html=1;rounded=0;strokeColor=#000000;strokeWidth=3;exitX=0.75;exitY=0;exitDx=0;exitDy=0;fillColor=#000000;" edge="1" parent="1">
          <mxGeometry width="50" height="50" relative="1" as="geometry">
            <mxPoint x="720" y="240" as="sourcePoint" />
            <mxPoint x="720" y="100" as="targetPoint" />
            <Array as="points" />
          </mxGeometry>
        </mxCell>
        <mxCell id="3XbdQUmmodfSfhwrSKd--14" value="eth1" style="rounded=0;whiteSpace=wrap;html=1;shadow=0;strokeColor=#3399FF;strokeWidth=3;" vertex="1" parent="1">
          <mxGeometry x="130" y="240" width="50" height="30" as="geometry" />
        </mxCell>
        <mxCell id="3XbdQUmmodfSfhwrSKd--15" value="eth0" style="rounded=0;whiteSpace=wrap;html=1;shadow=0;strokeColor=#000000;strokeWidth=3;" vertex="1" parent="1">
          <mxGeometry x="220" y="240" width="50" height="30" as="geometry" />
        </mxCell>
        <mxCell id="3XbdQUmmodfSfhwrSKd--16" value="eth1" style="rounded=0;whiteSpace=wrap;html=1;shadow=0;strokeColor=#007FFF;strokeWidth=3;" vertex="1" parent="1">
          <mxGeometry x="375" y="240" width="50" height="30" as="geometry" />
        </mxCell>
        <mxCell id="3XbdQUmmodfSfhwrSKd--17" value="eth0" style="rounded=0;whiteSpace=wrap;html=1;shadow=0;strokeColor=#000000;strokeWidth=3;" vertex="1" parent="1">
          <mxGeometry x="460" y="240" width="50" height="30" as="geometry" />
        </mxCell>
        <mxCell id="3XbdQUmmodfSfhwrSKd--18" value="eth1" style="rounded=0;whiteSpace=wrap;html=1;shadow=0;strokeColor=#007FFF;strokeWidth=3;" vertex="1" parent="1">
          <mxGeometry x="610" y="240" width="50" height="30" as="geometry" />
        </mxCell>
        <mxCell id="3XbdQUmmodfSfhwrSKd--19" value="eth0" style="rounded=0;whiteSpace=wrap;html=1;shadow=0;strokeColor=#000000;strokeWidth=3;" vertex="1" parent="1">
          <mxGeometry x="700" y="240" width="50" height="30" as="geometry" />
        </mxCell>
        <mxCell id="3XbdQUmmodfSfhwrSKd--20" value="eth2" style="rounded=0;whiteSpace=wrap;html=1;shadow=0;strokeColor=#00CC00;strokeWidth=3;" vertex="1" parent="1">
          <mxGeometry x="160" y="370" width="50" height="30" as="geometry" />
        </mxCell>
        <mxCell id="3XbdQUmmodfSfhwrSKd--21" value="eth2" style="rounded=0;whiteSpace=wrap;html=1;shadow=0;strokeColor=#00CC00;strokeWidth=3;" vertex="1" parent="1">
          <mxGeometry x="400" y="370" width="50" height="30" as="geometry" />
        </mxCell>
        <mxCell id="3XbdQUmmodfSfhwrSKd--22" value="eth2" style="rounded=0;whiteSpace=wrap;html=1;shadow=0;strokeColor=#00CC00;strokeWidth=3;" vertex="1" parent="1">
          <mxGeometry x="640" y="370" width="50" height="30" as="geometry" />
        </mxCell>
        <mxCell id="3XbdQUmmodfSfhwrSKd--23" value="" style="endArrow=none;html=1;rounded=0;strokeWidth=5;fillColor=#6d8764;strokeColor=#33FF99;" edge="1" parent="1">
          <mxGeometry width="50" height="50" relative="1" as="geometry">
            <mxPoint x="80" y="480" as="sourcePoint" />
            <mxPoint x="800" y="480" as="targetPoint" />
          </mxGeometry>
        </mxCell>
        <mxCell id="3XbdQUmmodfSfhwrSKd--24" value="" style="endArrow=none;html=1;strokeColor=#33FF99;strokeWidth=3;rounded=0;" edge="1" parent="1">
          <mxGeometry width="50" height="50" relative="1" as="geometry">
            <mxPoint x="185" y="480" as="sourcePoint" />
            <mxPoint x="184.5" y="400" as="targetPoint" />
            <Array as="points" />
          </mxGeometry>
        </mxCell>
        <mxCell id="3XbdQUmmodfSfhwrSKd--25" value="" style="endArrow=none;html=1;strokeColor=#33FF99;strokeWidth=3;rounded=0;" edge="1" parent="1">
          <mxGeometry width="50" height="50" relative="1" as="geometry">
            <mxPoint x="425.5" y="480" as="sourcePoint" />
            <mxPoint x="425" y="400" as="targetPoint" />
            <Array as="points" />
          </mxGeometry>
        </mxCell>
        <mxCell id="3XbdQUmmodfSfhwrSKd--26" value="" style="endArrow=none;html=1;strokeColor=#33FF99;strokeWidth=3;rounded=0;" edge="1" parent="1">
          <mxGeometry width="50" height="50" relative="1" as="geometry">
            <mxPoint x="665" y="480" as="sourcePoint" />
            <mxPoint x="664.5" y="400" as="targetPoint" />
            <Array as="points" />
          </mxGeometry>
        </mxCell>
        <mxCell id="3XbdQUmmodfSfhwrSKd--27" value="&lt;font style=&quot;&quot; face=&quot;Verdana&quot;&gt;&lt;b style=&quot;&quot;&gt;&lt;font style=&quot;font-size: 14px;&quot;&gt;vlan 16: ssh+internet&lt;/font&gt;&lt;/b&gt;&lt;br&gt;&lt;/font&gt;" style="text;html=1;align=center;verticalAlign=middle;resizable=0;points=[];autosize=1;strokeColor=none;fillColor=none;" vertex="1" parent="1">
          <mxGeometry x="70" y="75" width="190" height="30" as="geometry" />
        </mxCell>
        <mxCell id="3XbdQUmmodfSfhwrSKd--28" value="&lt;b&gt;&lt;font color=&quot;#3399ff&quot;&gt;virbr3: ceph public&lt;/font&gt;&lt;/b&gt;" style="text;html=1;align=center;verticalAlign=middle;resizable=0;points=[];autosize=1;strokeColor=none;fillColor=none;fontSize=14;fontFamily=Verdana;" vertex="1" parent="1">
          <mxGeometry x="70" y="155" width="170" height="30" as="geometry" />
        </mxCell>
        <mxCell id="3XbdQUmmodfSfhwrSKd--29" value="&lt;font color=&quot;#006600&quot;&gt;&lt;b&gt;virbr4: ceph relicated&lt;/b&gt;&lt;/font&gt;" style="text;html=1;align=center;verticalAlign=middle;resizable=0;points=[];autosize=1;strokeColor=none;fillColor=none;fontSize=14;fontFamily=Verdana;" vertex="1" parent="1">
          <mxGeometry x="70" y="480" width="190" height="30" as="geometry" />
        </mxCell>
      </root>
    </mxGraphModel>
  </diagram>
</mxfile>
